<svg xmlns="http://www.w3.org/2000/svg" width="272" height="222"><mask id="a" fill="#fff"><path fill-rule="evenodd" d="M0 158V.323h255.5V158z"/></mask><g fill="none" fill-rule="evenodd"><path fill="#4f545c" fill-opacity=".3" d="M255.5 24.856c0 13.549-10.984 24.533-24.533 24.533H201.86c-9.311 0-16.86 7.549-16.86 16.86 0 9.312 7.549 16.86 16.86 16.86h31.612c10.509 0 19.028 8.519 19.028 19.029 0 10.509-8.52 19.028-19.028 19.028h-61.555c-10.171 0-18.417 8.246-18.417 18.417S145.254 158 135.083 158H43.587C19.515 158 0 138.486 0 114.414 0 90.34 19.515 70.827 43.587 70.827H70.68c8.185 0 14.819-6.635 14.819-14.82S78.866 41.19 70.68 41.19H24.435C13.148 41.189 4 32.04 4 20.756S13.148.323 24.434.323h206.533c13.549 0 24.533 10.984 24.533 24.533" mask="url(#a)" transform="translate(8 49.531)"/><path fill="#202225" d="M64.948 42.986h.722a1 1 0 0 0 0-2h-.722a1 1 0 1 0 0 2m4.492 0h124.486a1.41 1.41 0 0 1 1.41 1.408v31.637a1 1 0 1 0 2 0V44.394a3.413 3.413 0 0 0-3.41-3.408H69.44a1 1 0 1 0 0 2"/><g fill="#36393f"><path d="m89.513 151.069 1.671-5.637h-8.326l-1.672 5.637zM131.759 138.97h-13.14l-1.561 5.727a1.001 1.001 0 0 1-.965.736h-11.868l-1.531 5.637h12.646c.303 0 .59.137.779.374a.98.98 0 0 1 .174.355h16.874v-11.421a1.41 1.41 0 0 0-1.408-1.408"/><path d="m134.777 122.232-.448.137a1 1 0 0 0-.511 1.553l.31.418a.999.999 0 0 1-.196 1.393l-.306.233a1 1 0 0 1-1.405-.196l-.38-.507a1 1 0 0 0-1.611.016l-.358.495a1 1 0 0 1-1.384.236l-.34-.238a1 1 0 0 1-.23-1.416l.345-.465a1 1 0 0 0-.506-1.55l-.5-.156a1 1 0 0 1-.665-1.233l.115-.398a1 1 0 0 1 1.265-.675l.573.183a1 1 0 0 0 1.304-.953v-.51a1 1 0 0 1 1-1h.399a1 1 0 0 1 1 1v.535a1 1 0 0 0 1.304.952l.51-.163a1 1 0 0 1 1.262.666l.12.4a1 1 0 0 1-.667 1.243m-13.104-18.614-.448.136a1 1 0 0 0-.511 1.554l.312.418a1 1 0 0 1-.197 1.393l-.307.233a1 1 0 0 1-1.405-.197l-.38-.506a1 1 0 0 0-1.611.016l-.357.495a1 1 0 0 1-1.385.236l-.34-.238a1 1 0 0 1-.23-1.416l.345-.465a1 1 0 0 0-.506-1.55l-.5-.157a1 1 0 0 1-.664-1.232l.115-.398a1 1 0 0 1 1.265-.675l.572.182a1 1 0 0 0 1.304-.952v-.512a1 1 0 0 1 1-1h.4a1 1 0 0 1 1 1v.536a1 1 0 0 0 1.304.953l.51-.163a1 1 0 0 1 1.262.666l.119.4a1 1 0 0 1-.667 1.243m-13.102 0-.448.136a1 1 0 0 0-.511 1.554l.31.418a.999.999 0 0 1-.196 1.393l-.306.233a1 1 0 0 1-1.405-.197l-.38-.506a1 1 0 0 0-1.611.016l-.357.495c-.32.444-.937.55-1.385.236l-.34-.238a1 1 0 0 1-.23-1.416l.345-.465a1 1 0 0 0-.506-1.55l-.5-.157a1 1 0 0 1-.665-1.232l.115-.398a1 1 0 0 1 1.265-.675l.573.182a1 1 0 0 0 1.304-.952v-.512a1 1 0 0 1 1-1h.399a1 1 0 0 1 1 1v.536a1 1 0 0 0 1.304.953l.51-.163a1 1 0 0 1 1.262.666l.12.4a1 1 0 0 1-.667 1.243m19.4-2.353.574.182a1 1 0 0 0 1.304-.952v-.512a1 1 0 0 1 1-1h.399a1 1 0 0 1 1 1v.536a1 1 0 0 0 1.304.953l.51-.163a1 1 0 0 1 1.262.666l.12.4a1.002 1.002 0 0 1-.667 1.243l-.448.136a1 1 0 0 0-.511 1.554l.31.418a.999.999 0 0 1-.196 1.393l-.306.233a1 1 0 0 1-1.405-.197l-.38-.506a1 1 0 0 0-1.611.016l-.358.495a1 1 0 0 1-1.384.236l-.34-.238a1 1 0 0 1-.23-1.416l.345-.465a1 1 0 0 0-.506-1.55l-.5-.157a1 1 0 0 1-.665-1.232l.115-.398a1 1 0 0 1 1.265-.675m13.105 0 .572.182a1 1 0 0 0 1.304-.952v-.512a1 1 0 0 1 1-1h.4a1 1 0 0 1 1 1v.536a1 1 0 0 0 1.304.953l.51-.163a1 1 0 0 1 1.262.666l.119.4a1 1 0 0 1-.667 1.243l-.448.136a1 1 0 0 0-.51 1.554l.31.418a1 1 0 0 1-.196 1.393l-.307.233a1 1 0 0 1-1.405-.197l-.38-.506a1 1 0 0 0-1.611.016l-.357.495a1 1 0 0 1-1.385.236l-.34-.238a1 1 0 0 1-.23-1.416l.345-.465a1 1 0 0 0-.506-1.55l-.5-.157a1 1 0 0 1-.664-1.232l.115-.398a1 1 0 0 1 1.265-.675m13.103 0 .573.182a1 1 0 0 0 1.304-.952v-.512a1 1 0 0 1 1-1h.399a1 1 0 0 1 1 1v.536a1 1 0 0 0 1.304.953l.51-.163a1 1 0 0 1 1.262.666l.12.4a1.002 1.002 0 0 1-.667 1.243l-.448.136a1 1 0 0 0-.511 1.554l.31.418a.999.999 0 0 1-.196 1.393l-.306.233a1 1 0 0 1-1.405-.197l-.38-.506a1 1 0 0 0-1.611.016l-.358.495a1 1 0 0 1-1.384.236l-.34-.238a1 1 0 0 1-.23-1.416l.345-.465a1 1 0 0 0-.506-1.55l-.5-.157a1 1 0 0 1-.665-1.232l.115-.398a1 1 0 0 1 1.265-.675m13.105 0 .572.182a1 1 0 0 0 1.304-.952v-.512a1 1 0 0 1 1-1h.4a1 1 0 0 1 1 1v.536a1 1 0 0 0 1.304.953l.51-.163a1 1 0 0 1 1.262.666l.119.4a1 1 0 0 1-.666 1.243l-.45.136a1 1 0 0 0-.51 1.554l.312.418a1 1 0 0 1-.197 1.393l-.307.233a1 1 0 0 1-1.405-.197l-.38-.506a1 1 0 0 0-1.611.016l-.357.495a1 1 0 0 1-1.385.236l-.34-.238a1 1 0 0 1-.23-1.416l.345-.465a1 1 0 0 0-.506-1.55l-.5-.157a1 1 0 0 1-.664-1.232l.115-.398a1 1 0 0 1 1.265-.675m13.103 0 .573.182a1 1 0 0 0 1.304-.952v-.512a1 1 0 0 1 1-1h.399a1 1 0 0 1 1 1v.536a1 1 0 0 0 1.304.953l.51-.163a1 1 0 0 1 1.262.666l.12.4a1.002 1.002 0 0 1-.667 1.243l-.448.136a1 1 0 0 0-.511 1.554l.31.418a.999.999 0 0 1-.196 1.393l-.306.233a1 1 0 0 1-1.405-.197l-.38-.506a1 1 0 0 0-1.611.016l-.358.495a1 1 0 0 1-1.384.236l-.34-.238a1 1 0 0 1-.23-1.416l.345-.465a1 1 0 0 0-.506-1.55l-.5-.157a1 1 0 0 1-.665-1.232l.115-.398a1 1 0 0 1 1.265-.675m13.105 0 .572.182a1 1 0 0 0 1.304-.952v-.512a1 1 0 0 1 1-1h.4a1 1 0 0 1 1 1v.536a1 1 0 0 0 1.304.953l.51-.163a1 1 0 0 1 1.262.666l.119.4a1 1 0 0 1-.666 1.243l-.45.136a1 1 0 0 0-.51 1.554l.312.418a1 1 0 0 1-.197 1.393l-.307.233a1 1 0 0 1-1.405-.197l-.38-.506a1 1 0 0 0-1.611.016l-.357.495a1 1 0 0 1-1.385.236l-.34-.238a1 1 0 0 1-.23-1.416l.345-.465a1 1 0 0 0-.506-1.55l-.5-.157a1 1 0 0 1-.664-1.232l.115-.398a1 1 0 0 1 1.265-.675m11.723 19.687.115-.398a1 1 0 0 1 1.265-.675l.573.183a1 1 0 0 0 1.304-.953v-.51a1 1 0 0 1 1-1h.399a1 1 0 0 1 1 1v.535a1 1 0 0 0 1.304.952l.51-.163a1 1 0 0 1 1.262.666l.12.4a1 1 0 0 1-.667 1.243l-.448.137a1 1 0 0 0-.511 1.553l.31.418a.999.999 0 0 1-.196 1.393l-.306.233a1 1 0 0 1-1.405-.196l-.38-.507a1 1 0 0 0-1.611.016l-.358.495a1 1 0 0 1-1.384.236l-.34-.238a1 1 0 0 1-.23-1.416l.345-.465a1 1 0 0 0-.506-1.55l-.5-.156a1 1 0 0 1-.665-1.233m0-18.614.115-.398a1 1 0 0 1 1.265-.675l.573.182a1 1 0 0 0 1.304-.952v-.512a1 1 0 0 1 1-1h.399a1 1 0 0 1 1 1v.536a1 1 0 0 0 1.304.953l.51-.163a1 1 0 0 1 1.262.666l.12.4a1.002 1.002 0 0 1-.667 1.243l-.448.136a1 1 0 0 0-.511 1.554l.31.418a.999.999 0 0 1-.196 1.393l-.306.233a1 1 0 0 1-1.405-.197l-.38-.506a1 1 0 0 0-1.611.016l-.358.495a1 1 0 0 1-1.384.236l-.34-.238a1 1 0 0 1-.23-1.416l.345-.465a1 1 0 0 0-.506-1.55l-.5-.157a1 1 0 0 1-.665-1.232m-4.92 19.894-.448.137a.999.999 0 0 0-.51 1.553l.31.418a1 1 0 0 1-.197 1.393l-.306.233a1 1 0 0 1-1.405-.196l-.38-.507a1 1 0 0 0-1.611.016l-.357.495a1 1 0 0 1-1.385.236l-.34-.238a1 1 0 0 1-.23-1.416l.345-.465a.999.999 0 0 0-.505-1.55l-.5-.156a1 1 0 0 1-.665-1.233l.115-.398a1 1 0 0 1 1.265-.675l.572.183a1 1 0 0 0 1.304-.953v-.51a1 1 0 0 1 1-1h.4a1 1 0 0 1 1 1v.535a1 1 0 0 0 1.304.952l.51-.163a1 1 0 0 1 1.262.666l.119.4a1 1 0 0 1-.666 1.243m-13.104 0-.448.137a1 1 0 0 0-.511 1.553l.31.418a.999.999 0 0 1-.196 1.393l-.306.233a1 1 0 0 1-1.405-.196l-.38-.507a1 1 0 0 0-1.611.016l-.358.495a1 1 0 0 1-1.384.236l-.34-.238a1 1 0 0 1-.23-1.416l.345-.465a1 1 0 0 0-.506-1.55l-.5-.156a1 1 0 0 1-.665-1.233l.115-.398a1 1 0 0 1 1.265-.675l.573.183a1 1 0 0 0 1.304-.953v-.51a1 1 0 0 1 1-1h.399a1 1 0 0 1 1 1v.535a1 1 0 0 0 1.304.952l.51-.163a1 1 0 0 1 1.262.666l.12.4a1 1 0 0 1-.667 1.243m-13.104 0-.45.137a.999.999 0 0 0-.51 1.553l.312.418a1 1 0 0 1-.198 1.393l-.306.233a1 1 0 0 1-1.405-.196l-.38-.507a1 1 0 0 0-1.611.016l-.357.495a1 1 0 0 1-1.385.236l-.34-.238a1 1 0 0 1-.23-1.416l.345-.465a1 1 0 0 0-.505-1.55l-.5-.156a1 1 0 0 1-.665-1.233l.115-.398a1 1 0 0 1 1.265-.675l.572.183a1 1 0 0 0 1.304-.953v-.51a1 1 0 0 1 1-1h.4a1 1 0 0 1 1 1v.535a1 1 0 0 0 1.304.952l.51-.163a1 1 0 0 1 1.262.666l.119.4a1 1 0 0 1-.666 1.243m-13.104 0-.448.137a1 1 0 0 0-.511 1.553l.31.418a.999.999 0 0 1-.196 1.393l-.306.233a1 1 0 0 1-1.405-.196l-.38-.507a1 1 0 0 0-1.611.016l-.358.495a1 1 0 0 1-1.384.236l-.34-.238a1 1 0 0 1-.23-1.416l.345-.465a1 1 0 0 0-.506-1.55l-.5-.156a1 1 0 0 1-.665-1.233l.115-.398a1 1 0 0 1 1.265-.675l.573.183a1 1 0 0 0 1.304-.953v-.51a1 1 0 0 1 1-1h.399a1 1 0 0 1 1 1v.535a1 1 0 0 0 1.304.952l.51-.163a1 1 0 0 1 1.262.666l.12.4a1 1 0 0 1-.667 1.243m-13.104 0-.45.137a.999.999 0 0 0-.51 1.553l.312.418a1 1 0 0 1-.198 1.393l-.306.233a1 1 0 0 1-1.405-.196l-.38-.507a1 1 0 0 0-1.611.016l-.357.495a1 1 0 0 1-1.385.236l-.34-.238a1 1 0 0 1-.23-1.416l.345-.465a1 1 0 0 0-.506-1.55l-.5-.156a1 1 0 0 1-.664-1.233l.115-.398a1 1 0 0 1 1.265-.675l.572.183a1 1 0 0 0 1.304-.953v-.51a1 1 0 0 1 1-1h.4a1 1 0 0 1 1 1v.535a1 1 0 0 0 1.304.952l.51-.163a1 1 0 0 1 1.262.666l.119.4a1 1 0 0 1-.666 1.243m-8.225 28.566h88.519a1.41 1.41 0 0 0 1.408-1.408v-26.912c0-.317.15-.615.405-.804l12.83-9.5-12.83-9.503a1 1 0 0 1-.405-.803V83.906a1.41 1.41 0 0 0-1.408-1.408H74.849c-.777 0-1.408.631-1.408 1.408v49.156h.006c1.372-4.582 2.733-9.214 3.949-13.439a1 1 0 0 1 .96-.724H89.46a1 1 0 0 1 .96 1.281l-3.77 12.882h8.33l3.932-13.443a1 1 0 0 1 .96-.72h10.992a.999.999 0 0 1 .957 1.29l-3.902 12.873h11.003a1.003 1.003 0 0 1 .965 1.264l-.722 2.643h12.594a3.413 3.413 0 0 1 3.408 3.41v11.42h3.489a1 1 0 0 1 1-1"/></g><path fill="#202225" d="m245.095 111.37-13.512-10.006V83.906a3.408 3.408 0 0 0-3.408-3.408H74.849a3.408 3.408 0 0 0-3.408 3.408v13.381a4 4 0 0 1-4 4H43.194a4 4 0 0 1-4-4v-15.37a1 1 0 0 0-.405-.803l-12.833-9.503 12.832-9.5c.255-.19.406-.489.406-.805V44.394c0-.777.63-1.408 1.408-1.408h17.43a1 1 0 1 0 0-2h-17.43a3.408 3.408 0 0 0-3.408 3.408v16.408L23.68 70.807a1 1 0 0 0 0 1.608l13.513 10.006V99.88a3.408 3.408 0 0 0 3.408 3.408H69.44a2 2 0 0 1 2 2v27.775H59.485a1 1 0 0 0-.98.795l-2.168 10.37a1.003 1.003 0 0 0 .979 1.206h8.766c1.924 0 3.27 1.9 2.634 3.716l-.016.045a2.804 2.804 0 0 1-2.646 1.875h-10.06a.999.999 0 0 0-.98.802l-2.072 10.276c-.06.295.016.6.207.832a.997.997 0 0 0 .773.367h7.403a2.281 2.281 0 0 1 2.19 2.922l-2.968 10.134c-.088.303-.03.63.159.881.19.252.486.4.8.4h11.01a.998.998 0 0 0 .96-.723l3.077-10.686a4.047 4.047 0 0 1 3.89-2.928c2.693 0 4.635 2.58 3.89 5.168l-2.272 7.893a.996.996 0 0 0 .96 1.276h10.88a.998.998 0 0 0 .96-.72c.358-1.237.782-2.676 1.29-4.379a1 1 0 0 0-1.916-.57 586.436 586.436 0 0 0-1.084 3.67H84.35l3.76-13.062a1 1 0 0 0-.96-1.276H76.642a1 1 0 0 0-.96.723l-3.92 13.614h-8.92l3.824-13.056a1.001 1.001 0 0 0-.96-1.28H55.144l1.67-8.278h11.808c.439 0 .923-.338 1.074-.75 1.018-2.775 1.69-4.61 2.449-7.643a1 1 0 0 0-.97-1.243h-12.63l1.752-8.37H74.19a.998.998 0 0 0 .958-.712c1.368-4.56 2.732-9.194 3.96-13.452h9.016l-3.77 12.882a.999.999 0 0 0 .96 1.281H95.73a.999.999 0 0 0 .959-.719l3.932-13.444h8.896l-3.902 12.873a.999.999 0 0 0 .957 1.29h11.04l-2.283 8.371H103.46a1 1 0 0 0-.966.738l-2.074 7.637a1 1 0 0 0 .965 1.261h12.71l-1.823 8.277H98.179c-.441 0-.83.29-.958.712l-.834 2.774a1.001 1.001 0 0 0 1.916.576 2.896 2.896 0 0 1 2.773-2.062h12c.469 0 .876-.327.977-.786l2.264-10.276a.983.983 0 0 0-.024-.485.985.985 0 0 0-.174-.356.999.999 0 0 0-.78-.374h-8.96a2.818 2.818 0 1 1 0-5.636h9.714a1 1 0 0 0 .965-.737l1.562-5.726h13.139c.777 0 1.408.63 1.408 1.408v48.484c0 .778-.631 1.408-1.408 1.408H40.602c-.778 0-1.408-.63-1.408-1.408V172.9c0-.317-.151-.614-.405-.803l-12.833-9.502 12.832-9.5c.255-.19.406-.489.406-.806v-11.91c0-.779.63-1.409 1.408-1.409h11.565a1 1 0 1 0 0-2H40.602a3.408 3.408 0 0 0-3.408 3.408v11.408L23.68 161.791a.998.998 0 0 0 0 1.607l13.513 10.006v15.458a3.408 3.408 0 0 0 3.408 3.408h91.157a3.408 3.408 0 0 0 3.408-3.408V140.38a3.408 3.408 0 0 0-3.408-3.409h-12.594l.722-2.644a1 1 0 0 0-.965-1.264h-6.96a3 3 0 0 1-2.87-3.87l2.73-9.003a1 1 0 0 0-.957-1.29H99.872a1 1 0 0 0-.96.72l-3.3 11.286a3 3 0 0 1-2.88 2.157h-2.078a3 3 0 0 1-2.88-3.842l2.646-9.039a1.002 1.002 0 0 0-.96-1.282H78.357a.99.99 0 0 0-.96.717 1398.18 1398.18 0 0 1-2.206 7.537c-.292.99-1.751.776-1.751-.256v-42.99c0-.779.63-1.409 1.409-1.409h153.326c.777 0 1.408.63 1.408 1.408v17.962a1 1 0 0 0 .406.804l12.83 9.502-12.83 9.501a.998.998 0 0 0-.406.804v26.912c0 .777-.631 1.408-1.408 1.408h-88.518a1 1 0 1 0 0 2h88.518a3.408 3.408 0 0 0 3.408-3.408v-26.409l13.512-10.005a.997.997 0 0 0 0-1.607"/><path fill="#202225" d="M58.262 58.99h-.4a1 1 0 0 0-1 1v.51a1 1 0 0 1-1.304.953l-.572-.183a1 1 0 0 0-1.265.676l-.115.397a1 1 0 0 0 .665 1.233l.5.155a1 1 0 0 1 .506 1.551l-.345.465a1 1 0 0 0 .229 1.416l.34.238a.998.998 0 0 0 1.385-.235l.357-.496a1 1 0 0 1 1.612-.015l.38.506a1 1 0 0 0 1.405.197l.306-.233a1 1 0 0 0 .197-1.394l-.311-.417a1 1 0 0 1 .51-1.554l.449-.137a1 1 0 0 0 .666-1.243l-.12-.399a1 1 0 0 0-1.261-.666l-.51.162a1 1 0 0 1-1.304-.952v-.536a1 1 0 0 0-1-1m9.112 4.587.5.155a1 1 0 0 1 .506 1.552l-.345.464a1 1 0 0 0 .23 1.416l.34.238a.998.998 0 0 0 1.384-.235l.358-.496a1 1 0 0 1 1.61-.015l.38.506a1 1 0 0 0 1.406.197l.306-.233a1 1 0 0 0 .197-1.394l-.311-.417a1 1 0 0 1 .51-1.554l.449-.137a1 1 0 0 0 .667-1.243l-.12-.399a1 1 0 0 0-1.262-.666l-.51.162a1 1 0 0 1-1.304-.952v-.536a1 1 0 0 0-1-1h-.4a1 1 0 0 0-1 1v.511a1 1 0 0 1-1.303.953l-.573-.183a1 1 0 0 0-1.265.676l-.115.398a1 1 0 0 0 .665 1.232m20.176.184.448-.136a1 1 0 0 0 .667-1.243l-.119-.4a1.002 1.002 0 0 0-1.263-.666l-.509.163a1.001 1.001 0 0 1-1.305-.953v-.536a1 1 0 0 0-1-1h-.399a1 1 0 0 0-1 1v.512a1 1 0 0 1-1.304.952l-.572-.182a1 1 0 0 0-1.266.675l-.114.398a1 1 0 0 0 .664 1.232l.5.156a1 1 0 0 1 .506 1.55l-.345.466a1 1 0 0 0 .23 1.416l.34.238a1 1 0 0 0 1.384-.236l.358-.495a1 1 0 0 1 1.611-.016l.38.506a1 1 0 0 0 1.405.197l.307-.233a.999.999 0 0 0 .196-1.393l-.31-.418a1 1 0 0 1 .51-1.554m13.104 0 .448-.136a1 1 0 0 0 .667-1.243l-.12-.4a1.002 1.002 0 0 0-1.262-.666l-.51.163a1.001 1.001 0 0 1-1.304-.953v-.536a1 1 0 0 0-1-1h-.4a1 1 0 0 0-1 1v.512a1 1 0 0 1-1.303.952l-.572-.182a1 1 0 0 0-1.266.675l-.114.398a1 1 0 0 0 .664 1.232l.5.156a1 1 0 0 1 .506 1.55l-.345.466a1 1 0 0 0 .23 1.416l.34.238a1 1 0 0 0 1.384-.236l.358-.495a1 1 0 0 1 1.61-.016l.38.506a1 1 0 0 0 1.406.197l.307-.233a.999.999 0 0 0 .196-1.393l-.311-.418a1 1 0 0 1 .51-1.554m13.105 0 .448-.136a1 1 0 0 0 .667-1.243l-.119-.4a1.002 1.002 0 0 0-1.263-.666l-.509.163a1.001 1.001 0 0 1-1.305-.953v-.536a1 1 0 0 0-1-1h-.399a1 1 0 0 0-1 1v.512a1 1 0 0 1-1.304.952l-.572-.182a1 1 0 0 0-1.266.675l-.114.398a1 1 0 0 0 .664 1.232l.5.156a1 1 0 0 1 .506 1.55l-.345.466a1 1 0 0 0 .23 1.416l.34.238a1 1 0 0 0 1.384-.236l.358-.495a1 1 0 0 1 1.611-.016l.38.506a1 1 0 0 0 1.405.197l.307-.233a1 1 0 0 0 .196-1.393l-.31-.418a1 1 0 0 1 .51-1.554m13.104 0 .448-.136a1 1 0 0 0 .667-1.243l-.12-.4a1.002 1.002 0 0 0-1.262-.666l-.51.163a1.001 1.001 0 0 1-1.304-.953v-.536a1 1 0 0 0-1-1h-.4a1 1 0 0 0-1 1v.512a1 1 0 0 1-1.303.952l-.572-.182a1 1 0 0 0-1.266.675l-.114.398a1 1 0 0 0 .664 1.232l.5.156a1 1 0 0 1 .506 1.55l-.345.466a1 1 0 0 0 .23 1.416l.34.238a1 1 0 0 0 1.384-.236l.358-.495a1 1 0 0 1 1.61-.016l.38.506a1 1 0 0 0 1.406.197l.307-.233a1 1 0 0 0 .196-1.393l-.311-.418a1 1 0 0 1 .51-1.554m13.105 0 .448-.136a1 1 0 0 0 .667-1.243l-.119-.4a1.002 1.002 0 0 0-1.263-.666l-.509.163a1.001 1.001 0 0 1-1.305-.953v-.536a1 1 0 0 0-1-1h-.399a1 1 0 0 0-1 1v.512a1 1 0 0 1-1.304.952l-.572-.182a1 1 0 0 0-1.266.675l-.114.398a1 1 0 0 0 .664 1.232l.5.156a1 1 0 0 1 .506 1.55l-.345.466a1 1 0 0 0 .23 1.416l.34.238a1 1 0 0 0 1.384-.236l.358-.495a1 1 0 0 1 1.611-.016l.38.506a1 1 0 0 0 1.405.197l.307-.233a1 1 0 0 0 .196-1.393l-.31-.418a1 1 0 0 1 .51-1.554m13.104 0 .448-.136a1 1 0 0 0 .667-1.243l-.12-.4a1.002 1.002 0 0 0-1.262-.666l-.51.163a1.001 1.001 0 0 1-1.304-.953v-.536a1 1 0 0 0-1-1h-.4a1 1 0 0 0-1 1v.512a1 1 0 0 1-1.303.952l-.572-.182a1 1 0 0 0-1.266.675l-.114.398a1 1 0 0 0 .664 1.232l.5.156a1 1 0 0 1 .506 1.55l-.345.466a1 1 0 0 0 .23 1.416l.34.238a1 1 0 0 0 1.384-.236l.358-.495a1 1 0 0 1 1.61-.016l.38.506a1 1 0 0 0 1.406.197l.307-.233a1 1 0 0 0 .196-1.393l-.311-.418a1 1 0 0 1 .51-1.554m13.105 0 .448-.136a1 1 0 0 0 .667-1.243l-.119-.4a1.002 1.002 0 0 0-1.263-.666l-.509.163a1.001 1.001 0 0 1-1.305-.953v-.536a1 1 0 0 0-1-1h-.399a1 1 0 0 0-1 1v.512a1 1 0 0 1-1.304.952l-.572-.182a1 1 0 0 0-1.266.675l-.114.398a1 1 0 0 0 .664 1.232l.5.156a1 1 0 0 1 .506 1.55l-.345.466a1 1 0 0 0 .23 1.416l.34.238a1 1 0 0 0 1.384-.236l.358-.495a1 1 0 0 1 1.611-.016l.38.506a1 1 0 0 0 1.405.197l.307-.233a1 1 0 0 0 .196-1.393l-.31-.418a1 1 0 0 1 .51-1.554m13.104 0 .448-.136a1 1 0 0 0 .667-1.243l-.12-.4a1.002 1.002 0 0 0-1.262-.666l-.51.163a1.001 1.001 0 0 1-1.304-.953v-.536a1 1 0 0 0-1-1h-.4a1 1 0 0 0-1 1v.512a1 1 0 0 1-1.303.952l-.572-.182a1 1 0 0 0-1.266.675l-.114.398a1 1 0 0 0 .664 1.232l.5.156a1 1 0 0 1 .506 1.55l-.345.466a1 1 0 0 0 .23 1.416l.34.238a1 1 0 0 0 1.384-.236l.358-.495a1 1 0 0 1 1.61-.016l.38.506a1 1 0 0 0 1.406.197l.307-.233a1 1 0 0 0 .196-1.393l-.311-.418a1 1 0 0 1 .51-1.554m-56.937 38.615-.12-.399a1 1 0 0 0-1.261-.666l-.51.162a1 1 0 0 1-1.304-.952v-.536a1 1 0 0 0-1-1h-.4a1 1 0 0 0-1 1v.511a1 1 0 0 1-1.304.953l-.572-.183a1 1 0 0 0-1.265.675l-.115.398a1 1 0 0 0 .664 1.233l.5.155a1 1 0 0 1 .506 1.551l-.344.465a1 1 0 0 0 .229 1.416l.34.238a1.002 1.002 0 0 0 1.385-.235l.357-.496a1 1 0 0 1 1.61-.016l.38.507a1 1 0 0 0 1.406.197l.307-.233a1 1 0 0 0 .197-1.394l-.311-.417a1 1 0 0 1 .51-1.555l.448-.136a1 1 0 0 0 .667-1.243m4.367-.435-.115.398a1 1 0 0 0 .665 1.232l.5.156a1 1 0 0 1 .506 1.551l-.345.465a1 1 0 0 0 .229 1.416l.34.238a1 1 0 0 0 1.385-.236l.357-.495a1 1 0 0 1 1.612-.016l.38.506a.999.999 0 0 0 1.404.197l.307-.233a.999.999 0 0 0 .197-1.393l-.311-.418a1 1 0 0 1 .51-1.554l.449-.136a1 1 0 0 0 .666-1.243l-.12-.4a1 1 0 0 0-1.261-.666l-.51.163a1 1 0 0 1-1.304-.953v-.536a1 1 0 0 0-1-1h-.4a1 1 0 0 0-1 1v.512a1 1 0 0 1-1.304.952l-.572-.182a.999.999 0 0 0-1.265.675m-17.47.435-.12-.399a1 1 0 0 0-1.26-.666l-.511.162a1 1 0 0 1-1.304-.952v-.536a1 1 0 0 0-1-1h-.4a1 1 0 0 0-1 1v.511a1 1 0 0 1-1.303.953l-.573-.183a1 1 0 0 0-1.265.675l-.115.398c-.15.524.145 1.072.665 1.233l.5.155a1 1 0 0 1 .506 1.551l-.345.465a1 1 0 0 0 .23 1.416l.34.238a1.002 1.002 0 0 0 1.385-.235l.357-.496a1 1 0 0 1 1.61-.016l.38.507a1 1 0 0 0 1.406.197l.306-.233a1 1 0 0 0 .197-1.394l-.31-.417a1 1 0 0 1 .51-1.555l.448-.136a1 1 0 0 0 .667-1.243m30.573-.435-.115.398a1 1 0 0 0 .665 1.232l.5.156a1 1 0 0 1 .506 1.551l-.345.465a1 1 0 0 0 .23 1.416l.34.238a1 1 0 0 0 1.384-.236l.357-.495a1 1 0 0 1 1.612-.016l.38.506a.999.999 0 0 0 1.404.197l.307-.233a.999.999 0 0 0 .197-1.393l-.31-.418a1 1 0 0 1 .51-1.554l.448-.136a1 1 0 0 0 .666-1.243l-.119-.4a1 1 0 0 0-1.262-.666l-.51.163a1 1 0 0 1-1.304-.953v-.536a1 1 0 0 0-1-1h-.399a1 1 0 0 0-1 1v.512a1 1 0 0 1-1.305.952l-.572-.182a.999.999 0 0 0-1.265.675m13.104 0-.115.398a1 1 0 0 0 .665 1.232l.5.156a1 1 0 0 1 .506 1.551l-.345.465a1 1 0 0 0 .229 1.416l.34.238a1 1 0 0 0 1.385-.236l.357-.495a1 1 0 0 1 1.612-.016l.38.506a.999.999 0 0 0 1.404.197l.307-.233a.999.999 0 0 0 .197-1.393l-.311-.418a1 1 0 0 1 .51-1.554l.449-.136a1 1 0 0 0 .666-1.243l-.12-.4a1 1 0 0 0-1.261-.666l-.51.163a1 1 0 0 1-1.304-.953v-.536a1 1 0 0 0-1-1h-.4a1 1 0 0 0-1 1v.512a1 1 0 0 1-1.304.952l-.572-.182a.999.999 0 0 0-1.265.675m13.104 0-.115.398a1 1 0 0 0 .665 1.232l.5.156a1 1 0 0 1 .506 1.551l-.345.465a1 1 0 0 0 .23 1.416l.34.238a1 1 0 0 0 1.384-.236l.357-.495a1 1 0 0 1 1.612-.016l.38.506a.999.999 0 0 0 1.404.197l.307-.233a.999.999 0 0 0 .197-1.393l-.31-.418a1 1 0 0 1 .51-1.554l.448-.136a1 1 0 0 0 .666-1.243l-.119-.4a1 1 0 0 0-1.262-.666l-.51.163a1 1 0 0 1-1.304-.953v-.536a1 1 0 0 0-1-1h-.399a1 1 0 0 0-1 1v.512a1 1 0 0 1-1.305.952l-.572-.182a.999.999 0 0 0-1.265.675m13.104 0-.115.398a1 1 0 0 0 .665 1.232l.5.156a1 1 0 0 1 .506 1.551l-.345.465a1 1 0 0 0 .229 1.416l.34.238a1 1 0 0 0 1.385-.236l.357-.495a1 1 0 0 1 1.612-.016l.38.506a.999.999 0 0 0 1.404.197l.307-.233a.999.999 0 0 0 .197-1.393l-.311-.418a1 1 0 0 1 .51-1.554l.449-.136a1 1 0 0 0 .666-1.243l-.12-.4a1 1 0 0 0-1.261-.666l-.51.163a1 1 0 0 1-1.304-.953v-.536a1 1 0 0 0-1-1h-.4a1 1 0 0 0-1 1v.512a1 1 0 0 1-1.304.952l-.572-.182a.999.999 0 0 0-1.265.675m13.104 0-.115.398a1 1 0 0 0 .665 1.232l.5.156a1 1 0 0 1 .506 1.551l-.345.465a1 1 0 0 0 .23 1.416l.34.238a1 1 0 0 0 1.384-.236l.357-.495a1 1 0 0 1 1.612-.016l.38.506a.999.999 0 0 0 1.404.197l.307-.233a.999.999 0 0 0 .197-1.393l-.31-.418a1 1 0 0 1 .51-1.554l.448-.136a1 1 0 0 0 .666-1.243l-.119-.4a1 1 0 0 0-1.262-.666l-.51.163a1 1 0 0 1-1.304-.953v-.536a1 1 0 0 0-1-1h-.399a1 1 0 0 0-1 1v.512a1 1 0 0 1-1.305.952l-.572-.182a.999.999 0 0 0-1.265.675m13.654 1.63.5.156a1 1 0 0 1 .506 1.552l-.345.464a1 1 0 0 0 .23 1.416l.34.238a.998.998 0 0 0 1.384-.235l.358-.496a1 1 0 0 1 1.61-.015l.38.506a1 1 0 0 0 1.406.197l.306-.233a1 1 0 0 0 .197-1.394l-.311-.417a1 1 0 0 1 .51-1.554l.449-.137a1 1 0 0 0 .667-1.243l-.12-.4a1 1 0 0 0-1.262-.665l-.51.162a1 1 0 0 1-1.304-.952v-.536a1 1 0 0 0-1-1h-.4a1 1 0 0 0-1 1v.51a1 1 0 0 1-1.303.954l-.573-.183a1 1 0 0 0-1.265.676l-.115.398a1 1 0 0 0 .665 1.232m-70.557 17.019a1 1 0 0 0-1.262-.666l-.51.163a1 1 0 0 1-1.304-.953v-.535a1 1 0 0 0-1-1h-.4a1 1 0 0 0-1 1v.51a1 1 0 0 1-1.304.953l-.572-.182a.999.999 0 0 0-1.265.675l-.115.398a1 1 0 0 0 .665 1.232l.5.155a1 1 0 0 1 .505 1.552l-.344.465a1 1 0 0 0 .23 1.416l.34.237a.998.998 0 0 0 1.384-.235l.357-.496a1 1 0 0 1 1.612-.015l.38.506a1 1 0 0 0 1.404.197l.306-.233c.437-.332.525-.954.198-1.394l-.31-.417a1 1 0 0 1 .51-1.554l.448-.136a1 1 0 0 0 .666-1.244zm13.104 0a1 1 0 0 0-1.262-.666l-.51.163a1 1 0 0 1-1.304-.953v-.535a1 1 0 0 0-1-1h-.4a1 1 0 0 0-1 1v.51a1 1 0 0 1-1.304.953l-.572-.182a.999.999 0 0 0-1.265.675l-.115.398a1 1 0 0 0 .665 1.232l.5.155a1 1 0 0 1 .505 1.552l-.344.465a1 1 0 0 0 .229 1.416l.34.237a.998.998 0 0 0 1.385-.235l.357-.496a1 1 0 0 1 1.612-.015l.379.506a1 1 0 0 0 1.405.197l.306-.233c.437-.332.525-.954.198-1.394l-.311-.417a1 1 0 0 1 .51-1.554l.449-.136a1 1 0 0 0 .666-1.244zm13.104 0a1 1 0 0 0-1.262-.666l-.51.163a1 1 0 0 1-1.304-.953v-.535a1 1 0 0 0-1-1h-.4a1 1 0 0 0-1 1v.51a1 1 0 0 1-1.304.953l-.572-.182a.999.999 0 0 0-1.265.675l-.115.398a1 1 0 0 0 .665 1.232l.5.155a1 1 0 0 1 .505 1.552l-.344.465a1 1 0 0 0 .23 1.416l.34.237a.998.998 0 0 0 1.384-.235l.357-.496a1 1 0 0 1 1.612-.015l.38.506a1 1 0 0 0 1.404.197l.306-.233c.437-.332.525-.954.198-1.394l-.31-.417a1 1 0 0 1 .51-1.554l.448-.136a1 1 0 0 0 .666-1.244zm13.104 0a1 1 0 0 0-1.262-.666l-.51.163a1 1 0 0 1-1.304-.953v-.535a1 1 0 0 0-1-1h-.4a1 1 0 0 0-1 1v.51a1 1 0 0 1-1.304.953l-.572-.182a.999.999 0 0 0-1.265.675l-.115.398a1 1 0 0 0 .665 1.232l.5.155a1 1 0 0 1 .505 1.552l-.344.465a1 1 0 0 0 .229 1.416l.34.237a.998.998 0 0 0 1.385-.235l.357-.496a1 1 0 0 1 1.612-.015l.379.506a1 1 0 0 0 1.405.197l.306-.233c.437-.332.525-.954.198-1.394l-.311-.417a1 1 0 0 1 .51-1.554l.449-.136a1 1 0 0 0 .666-1.244zm13.104 0a1 1 0 0 0-1.262-.666l-.51.163a1 1 0 0 1-1.304-.953v-.535a1 1 0 0 0-1-1h-.4a1 1 0 0 0-1 1v.51a1 1 0 0 1-1.304.953l-.572-.182a.999.999 0 0 0-1.265.675l-.115.398a1 1 0 0 0 .665 1.232l.5.155a1 1 0 0 1 .505 1.552l-.344.465a1 1 0 0 0 .23 1.416l.34.237a.998.998 0 0 0 1.384-.235l.357-.496a1 1 0 0 1 1.612-.015l.38.506a1 1 0 0 0 1.404.197l.306-.233c.437-.332.525-.954.198-1.394l-.31-.417a1 1 0 0 1 .51-1.554l.448-.136a1 1 0 0 0 .666-1.244zm13.104 0a1 1 0 0 0-1.262-.666l-.51.163a1 1 0 0 1-1.304-.953v-.535a1 1 0 0 0-1-1h-.4a1 1 0 0 0-1 1v.51a1 1 0 0 1-1.304.953l-.572-.182a.999.999 0 0 0-1.265.675l-.115.398a1 1 0 0 0 .665 1.232l.5.155a1 1 0 0 1 .505 1.552l-.344.465a1 1 0 0 0 .229 1.416l.34.237a.998.998 0 0 0 1.385-.235l.357-.496a1 1 0 0 1 1.612-.015l.379.506a1 1 0 0 0 1.405.197l.306-.233c.437-.332.525-.954.198-1.394l-.311-.417a1 1 0 0 1 .51-1.554l.449-.136a1 1 0 0 0 .666-1.244zm5.037 1.595.5.155a1 1 0 0 1 .506 1.552l-.345.464a1 1 0 0 0 .23 1.416l.34.238a.998.998 0 0 0 1.384-.235l.358-.496a1 1 0 0 1 1.61-.015l.38.506a1 1 0 0 0 1.406.197l.306-.233a1 1 0 0 0 .197-1.394l-.311-.417a1 1 0 0 1 .51-1.554l.449-.137a1 1 0 0 0 .667-1.243l-.12-.399a1 1 0 0 0-1.262-.666l-.51.163a1 1 0 0 1-1.304-.953v-.535a1 1 0 0 0-1-1h-.4a1 1 0 0 0-1 1v.51a1 1 0 0 1-1.303.953l-.573-.183a1 1 0 0 0-1.265.676l-.115.398a1 1 0 0 0 .665 1.232"/><path fill="#4f545c" d="M90.26 153.07H79.849a1.001 1.001 0 0 1-.96-1.285l2.264-7.637a1 1 0 0 1 .959-.716h10.413a1 1 0 0 1 .959 1.284l-2.263 7.637a1 1 0 0 1-.96.716m6.127 11.763.835-2.775c.128-.423.517-.712.958-.712h14.093l1.823-8.276h-12.71a1 1 0 0 1-.965-1.262l2.074-7.636c.119-.436.514-.739.965-.739h11.869l2.284-8.37h-11.041a.999.999 0 0 1-.957-1.29l3.902-12.873h-8.896l-3.931 13.443a1 1 0 0 1-.96.72H85.316a.998.998 0 0 1-.96-1.28l3.769-12.883H79.11c-1.23 4.257-2.592 8.89-3.96 13.45a1.001 1.001 0 0 1-.958.713H60.297l-1.751 8.37h12.629a.998.998 0 0 1 .97 1.243c-.76 3.038-1.433 4.873-2.452 7.653-.144.394-.55.741-.97.741h-11.91l-1.67 8.276h10.563a1 1 0 0 1 .96 1.282l-3.824 13.056h8.92l3.92-13.614a1 1 0 0 1 .96-.724H87.15c.314 0 .61.148.798.4.19.25.25.575.163.877l-3.761 13.061h8.8c.312-1.07.672-2.283 1.085-3.67a.999.999 0 0 1 1.243-.673v.001c.46-1.54.985-3.288 1.579-5.263a1.001 1.001 0 0 1-.67-1.246"/><path fill="#202225" d="m90.803 146.717-1.077 3.637a1 1 0 0 1-.96.716h-6.24a1.001 1.001 0 0 1-.96-1.285l1.078-3.636a1 1 0 0 1 .96-.716h6.24a1 1 0 0 1 .96 1.284zm2.68-2a1 1 0 0 0-.96-1.284H82.111a1 1 0 0 0-.96.716l-2.262 7.636a1.002 1.002 0 0 0 .959 1.285H90.26a1 1 0 0 0 .96-.716zm132.249-82.431a1.51 1.51 0 0 1-1.51-1.51 1 1 0 1 0-2 0 1.51 1.51 0 0 1-1.51 1.51 1 1 0 1 0 0 2c.834 0 1.51.676 1.51 1.51a1 1 0 1 0 2 0c0-.834.676-1.51 1.51-1.51a1 1 0 1 0 0-2m-48.424 118.66a1.51 1.51 0 0 1-1.51-1.51 1 1 0 1 0-2 0 1.51 1.51 0 0 1-1.51 1.51 1 1 0 1 0 0 2c.834 0 1.51.677 1.51 1.51a1 1 0 1 0 2 0c0-.833.676-1.51 1.51-1.51a1 1 0 1 0 0-2m-20.715-14.01a.997.997 0 0 0 .707-.293l1.184-1.183a1 1 0 0 0-1.414-1.414l-1.184 1.183a1 1 0 0 0 .707 1.707m-5.916 5.916a.997.997 0 0 0 .707-.293l1.183-1.184a.999.999 0 1 0-1.414-1.413l-1.183 1.184a.999.999 0 0 0 .707 1.707m6.623-2.891a.999.999 0 1 0-1.414 1.414l1.184 1.184a.997.997 0 0 0 1.414 0 1 1 0 0 0 0-1.414zm-6.147-3.32a.997.997 0 0 0 1.414 0 .999.999 0 0 0 0-1.413l-1.183-1.183a1 1 0 0 0-1.414 1.414zM62.912 16c.833 0 1.51.678 1.51 1.51 0 .833-.677 1.511-1.51 1.511s-1.51-.678-1.51-1.51c0-.833.677-1.51 1.51-1.51m0 5.02a3.515 3.515 0 0 0 3.51-3.51 3.514 3.514 0 0 0-3.51-3.51 3.513 3.513 0 0 0-3.51 3.51 3.515 3.515 0 0 0 3.51 3.51"/></g></svg>